<?xml version="1.0" standalone="no"?>
<!DOCTYPE svg PUBLIC "-//W3C//DTD SVG 20010904//EN"
 "http://www.w3.org/TR/2001/REC-SVG-20010904/DTD/svg10.dtd">
<svg version="1.0"
  xmlns="http://www.w3.org/2000/svg" width="64.000000pt" height="64.000000pt" viewBox="0 0 64.000000 64.000000" preserveAspectRatio="xMidYMid meet">

  <g transform="translate(0.000000,64.000000) scale(0.100000,-0.100000)" fill="#000000" stroke="none">
    <path d="M106 425 c-28 -26 -34 -65 -13 -87 8 -7 16 -30 20 -52 14 -87 79
-130 186 -124 69 4 119 27 196 91 18 15 41 27 52 27 26 0 63 36 63 61 0 11 -7
34 -16 50 -13 26 -20 30 -51 27 -25 -2 -42 -11 -56 -30 -18 -24 -18 -28 -4
-57 15 -30 15 -31 -14 -48 -16 -10 -29 -21 -29 -25 0 -4 -9 -8 -19 -8 -10 0
-21 -6 -24 -13 -11 -30 -146 -48 -200 -28 -16 7 -29 24 -39 55 l-15 46 33 21
c19 11 34 29 34 39 0 32 -21 68 -44 74 -31 8 -31 8 -60 -19z m415 -128 c-10
-9 -11 -8 -5 6 3 10 9 15 12 12 3 -3 0 -11 -7 -18z m-394 -9 c-3 -8 -6 -5 -6
6 -1 11 2 17 5 13 3 -3 4 -12 1 -19z"/>
  </g>
</svg>
